HIERARCHY
ROOT Hips
{
    OFFSET -0.1800 -22.3300 2.8200
    CHANNELS 6 Xposition Yposition Zposition Zrotation Yrotation Xrotation 
    JOINT LeftUpLeg
    {
        OFFSET -0.6800 6.9500 -9.1400
        CHANNELS 3 Zrotation Yrotation Xrotation
        JOINT LeftLeg
        {
            OFFSET -0.4500 3.4300 -37.5200
            CHANNELS 3 Zrotation Yrotation Xrotation
            JOINT LeftFoot
            {
                OFFSET -4.3700 -1.3600 -39.8000
                CHANNELS 3 Zrotation Yrotation Xrotation
                JOINT LeftToe
                {
                    OFFSET 11.9300 2.6400 -5.5800
                    CHANNELS 3 Zrotation Yrotation Xrotation
                    End Site
                    {
                        OFFSET 0.0000 0.0000 0.0000
                    }
                }
            }
        }
    }
    JOINT RightUpLeg
    {
        OFFSET -0.4300 -6.7700 -9.0500
        CHANNELS 3 Zrotation Yrotation Xrotation
        JOINT RightLeg
        {
            OFFSET -0.8900 -3.8300 -38.2600
            CHANNELS 3 Zrotation Yrotation Xrotation
            JOINT RightFoot
            {
                OFFSET -4.2300 1.5800 -39.8400
                CHANNELS 3 Zrotation Yrotation Xrotation
                JOINT RightToe
                {
                    OFFSET 12.3300 -2.5400 -4.8100
                    CHANNELS 3 Zrotation Yrotation Xrotation
                    End Site
                    {
                        OFFSET 0.0000 0.0000 0.0000
                    }
                }
            }
        }
    }
    JOINT Spine
    {
        OFFSET -2.6700 -0.2500 10.9000
        CHANNELS 3 Zrotation Yrotation Xrotation
        JOINT Spine1
        {
            OFFSET 0.1100 0.5500 13.5200
            CHANNELS 3 Zrotation Yrotation Xrotation
            JOINT Spine2
            {
                OFFSET 2.5400 0.1500 5.2900
                CHANNELS 3 Zrotation Yrotation Xrotation
                JOINT Neck
                {
                    OFFSET -4.2900 -0.2800 21.3900
                    CHANNELS 3 Zrotation Yrotation Xrotation
                    JOINT Head
                    {
                        OFFSET 5.1300 0.5200 6.5000
                        CHANNELS 3 Zrotation Yrotation Xrotation
                        End Site
                        {
                            OFFSET 0.0000 0.0000 0.0000
                        }
                    }
                }
                JOINT LeftShoulder
                {
                    OFFSET -3.4100 7.8800 12.1700
                    CHANNELS 3 Zrotation Yrotation Xrotation
                    JOINT LeftArm
                    {
                        OFFSET -0.8900 9.1000 3.0500
                        CHANNELS 3 Zrotation Yrotation Xrotation
                        JOINT LeftForeArm
                        {
                            OFFSET -2.7500 25.9600 -1.2800
                            CHANNELS 3 Zrotation Yrotation Xrotation
                            JOINT LeftHand
                            {
                                OFFSET -1.4900 8.4000 -0.8200
                                CHANNELS 3 Zrotation Yrotation Xrotation
                                End Site
                                {
                                    OFFSET 0.0000 0.0000 0.0000
                                }
                            }
                        }
                    }
                }
                JOINT RightShoulder
                {
                    OFFSET -3.8600 -8.1800 11.8800
                    CHANNELS 3 Zrotation Yrotation Xrotation
                    JOINT RightArm
                    {
                        OFFSET -0.9100 -9.6000 3.2600
                        CHANNELS 3 Zrotation Yrotation Xrotation
                        JOINT RightForeArm
                        {
                            OFFSET -2.1400 -25.3700 -1.3300
                            CHANNELS 3 Zrotation Yrotation Xrotation
                            JOINT RightHand
                            {
                                OFFSET -1.0300 -8.4600 -0.6100
                                CHANNELS 3 Zrotation Yrotation Xrotation
                                End Site
                                {
                                    OFFSET 0.0000 0.0000 0.0000
                                }
                            }
                        }
                    }
                }
            }
        }
    }
}
MOTION
Frames: 5
Frame Time: 0.016667
-12.342475 41.372502 89.606959 122.881172 1.437488 3.073044 6.815601 -21.061695 0.357090 -5.603137 31.428368 -17.776253 7.427773 -11.323264 3.615122 3.930985 1.670649 6.913285 -1.010535 -27.273937 -7.852814 -3.534884 37.805192 3.255777 3.612282 -12.632471 1.250924 -13.434024 3.766262 -2.633379 -1.451885 39.787750 -0.112831 -1.677298 -2.524354 0.478723 -0.265669 3.586870 -0.066250 -5.880253 -10.594030 -0.286592 -4.037303 -2.879041 1.952304 -12.851677 1.618055 -20.916145 -4.072329 0.644644 -44.342023 -22.519387 2.184450 5.216218 -8.459420 -17.846225 14.533585 9.294363 -1.438270 14.950693 7.850333 0.310416 49.383463 29.712738 8.393032 -11.414113 2.246323 -21.858368 15.095520
-12.472575 41.581553 90.064085 122.108352 1.430535 2.554558 6.747197 -17.968002 0.332769 -7.811084 26.234116 -15.893922 7.427686 -11.422235 1.373078 -6.050815 3.602553 7.210395 -1.890234 -25.225931 -6.055149 -2.013609 33.843216 3.993579 3.317611 -12.135362 1.325696 -9.132483 7.103899 0.211343 -1.479640 36.205192 -0.700627 -1.353292 -2.477388 0.484897 -0.484655 4.472363 -0.179773 -4.964087 -9.396446 -0.862917 -2.653519 -3.842821 1.880782 -11.706106 3.047724 -20.411431 -1.889549 1.625774 -41.978550 -23.837152 3.150953 4.399140 -6.051409 -16.628159 6.608663 8.665820 1.280676 14.319957 5.437277 0.129533 47.076947 33.157182 12.198607 -8.950605 2.239035 -19.383492 20.587233
-12.579352 41.746366 90.443069 121.792746 1.381662 2.095650 6.747197 -17.968002 0.332769 -7.811084 26.234116 -15.893922 7.427686 -11.422235 1.373078 -6.050815 3.602553 7.210395 -1.890234 -25.225931 -6.055149 -2.013609 33.843216 3.993579 3.317611 -12.135362 1.325696 -9.132483 7.103899 0.211343 -1.479640 36.205192 -0.700627 -1.353292 -2.477388 0.484897 -0.484655 4.472363 -0.179773 -4.964087 -9.396446 -0.862917 -2.653519 -3.842821 1.880782 -11.706106 3.047724 -20.411431 -1.889549 1.625774 -41.978550 -23.837152 3.150953 4.399140 -6.051409 -16.628159 6.608663 8.665820 1.280676 14.319957 5.437277 0.129533 47.076947 33.157182 12.198607 -8.950605 2.239035 -19.383492 20.587233
-12.689902 41.869357 90.745062 121.590201 1.300513 1.710836 6.428684 -16.467964 0.546044 -7.480575 24.115244 -14.110821 8.418687 -10.655178 0.570974 -7.029381 -0.668217 5.260948 -2.775741 -24.000367 -4.894486 -0.894947 31.723113 4.712221 2.550749 -13.752775 1.660563 -9.386231 10.347104 1.820525 -1.454947 33.808618 -0.685549 -1.595170 -2.196442 0.859949 -1.036117 5.128628 0.166888 -4.086508 -10.113403 -1.651694 -1.850774 -4.531305 1.435020 -10.338094 4.521142 -20.334932 -0.255172 2.854819 -40.464712 -26.540851 3.592802 2.837205 -5.891682 -11.488678 8.916193 8.842655 3.328591 14.553744 4.255786 0.993563 43.458573 34.663916 11.399151 -6.502530 3.790596 -18.993173 21.008278
-12.789032 41.991696 91.016167 120.972692 1.262984 1.255929 6.428684 -16.467964 0.546044 -7.480575 24.115244 -14.110821 8.418687 -10.655178 0.570974 -7.029381 -0.668217 5.260948 -2.775741 -24.000367 -4.894486 -0.894947 31.723113 4.712221 2.550749 -13.752775 1.660563 -9.386231 10.347104 1.820525 -1.454947 33.808618 -0.685549 -1.595170 -2.196442 0.859949 -1.036117 5.128628 0.166888 -4.086508 -10.113403 -1.651694 -1.850774 -4.531305 1.435020 -10.338094 4.521142 -20.334932 -0.255172 2.854819 -40.464712 -26.540851 3.592802 2.837205 -5.891682 -11.488678 8.916193 8.842655 3.328591 14.553744 4.255786 0.993563 43.458573 34.663916 11.399151 -6.502530 3.790596 -18.993173 21.008278
